<?xml version="1.0" encoding="UTF-8" standalone="no"?>
<svg
   width="1254"
   height="1254"
   viewBox="0 0 1254 1254"
   version="1.1"
   id="svg138"
   xmlns="http://www.w3.org/2000/svg"
   xmlns:svg="http://www.w3.org/2000/svg">
  <title
     id="title2">FrostByte fully editable logo</title>
  <defs
     id="defs77">
    <linearGradient
       id="glass"
       x1="290"
       y1="160"
       x2="930"
       y2="840"
       gradientUnits="userSpaceOnUse">
      <stop
         offset="0"
         stop-color="#63ddff"
         id="stop4" />
      <stop
         offset=".25"
         stop-color="#198fdc"
         id="stop6" />
      <stop
         offset=".55"
         stop-color="#073a81"
         id="stop8" />
      <stop
         offset=".79"
         stop-color="#0879cb"
         id="stop10" />
      <stop
         offset="1"
         stop-color="#41e8f0"
         id="stop12" />
    </linearGradient>
    <radialGradient
       id="glassLight"
       cx="0"
       cy="0"
       r="1"
       gradientTransform="translate(359 192) rotate(48) scale(688 664)"
       gradientUnits="userSpaceOnUse">
      <stop
         stop-color="#fff"
         stop-opacity=".74"
         id="stop15" />
      <stop
         offset=".31"
         stop-color="#fff"
         stop-opacity=".2"
         id="stop17" />
      <stop
         offset=".7"
         stop-color="#fff"
         stop-opacity="0"
         id="stop19" />
    </radialGradient>
    <linearGradient
       id="rim"
       x1="300"
       y1="140"
       x2="951"
       y2="850"
       gradientUnits="userSpaceOnUse">
      <stop
         stop-color="#c7f8ff"
         id="stop22" />
      <stop
         offset=".28"
         stop-color="#62cfff"
         id="stop24" />
      <stop
         offset=".6"
         stop-color="#62bfff"
         id="stop26" />
      <stop
         offset="1"
         stop-color="#65eff4"
         id="stop28" />
    </linearGradient>
    <linearGradient
       id="ice"
       x1="477"
       y1="303"
       x2="757"
       y2="718"
       gradientUnits="userSpaceOnUse">
      <stop
         stop-color="#fff"
         id="stop31" />
      <stop
         offset=".32"
         stop-color="#edfaff"
         id="stop33" />
      <stop
         offset=".7"
         stop-color="#b5ebff"
         id="stop35" />
      <stop
         offset="1"
         stop-color="#77d8f5"
         id="stop37" />
    </linearGradient>
    <linearGradient
       id="cpu"
       x1="587"
       y1="470"
       x2="667"
       y2="560"
       gradientUnits="userSpaceOnUse">
      <stop
         stop-color="#bffcff"
         id="stop40" />
      <stop
         offset=".43"
         stop-color="#4be8f3"
         id="stop42" />
      <stop
         offset="1"
         stop-color="#079adb"
         id="stop44" />
    </linearGradient>
    <linearGradient
       id="byte"
       x1="682"
       y1="953"
       x2="1077"
       y2="1100"
       gradientUnits="userSpaceOnUse">
      <stop
         stop-color="#18c7e6"
         id="stop47" />
      <stop
         offset="1"
         stop-color="#0784ef"
         id="stop49" />
    </linearGradient>
    <filter
       id="blur36"
       x="-0.12342857"
       y="-0.12067039"
       width="1.2468571"
       height="1.2413408">
      <feGaussianBlur
         stdDeviation="36"
         id="feGaussianBlur52" />
    </filter>
    <filter
       id="blur12"
       x="-30%"
       y="-30%"
       width="160%"
       height="160%">
      <feGaussianBlur
         stdDeviation="12"
         id="feGaussianBlur55" />
    </filter>
    <filter
       id="reflectionSoft"
       x="-0.042857143"
       y="-0.072289157"
       width="1.0857143"
       height="1.1445783">
      <feGaussianBlur
         stdDeviation="5"
         id="feGaussianBlur58" />
    </filter>
    <filter
       id="iceShadow"
       x="-0.093854749"
       y="-0.093854749"
       width="1.1877095"
       height="1.1877095">
      <feGaussianBlur
         in="SourceAlpha"
         stdDeviation="7"
         result="b"
         id="feGaussianBlur61" />
      <feFlood
         flood-color="#67dcff"
         flood-opacity=".65"
         result="c"
         id="feFlood63" />
      <feComposite
         in="c"
         in2="b"
         operator="in"
         result="g"
         id="feComposite65" />
      <feMerge
         id="feMerge71">
        <feMergeNode
           in="g"
           id="feMergeNode67" />
        <feMergeNode
           in="SourceGraphic"
           id="feMergeNode69" />
      </feMerge>
    </filter>
    <clipPath
       id="clip">
      <rect
         x="257"
         y="129"
         width="742"
         height="733"
         rx="184"
         id="rect74" />
    </clipPath>
  </defs>
  <g
     id="background">
    <path
       d="M 0,0 H 1254 V 1254 H 0 Z"
       fill="#ffffff"
       id="path79" />
  </g>
  <g
     id="icon-shadow">
    <path
       id="rect82"
       style="opacity:0.25;fill:#21a7e5;filter:url(#blur36)"
       d="m 447,176 h 362 c 93.626,0 169,75.374 169,169 v 378 c 0,93.626 -75.374,169 -169,169 H 447 C 353.374,892 278,816.626 278,723 V 345 c 0,-93.626 75.374,-169 169,-169 z" />
  </g>
  <g
     id="glass-tile">
    <path
       id="rect85"
       style="fill:url(#glass)"
       d="m 441,129 h 374 c 101.936,0 184,82.064 184,184 v 365 c 0,101.936 -82.064,184 -184,184 H 441 C 339.064,862 257,779.936 257,678 V 313 c 0,-101.936 82.064,-184 184,-184 z" />
    <g
       clip-path="url(#clip)"
       id="g97">
      <path
         id="ellipse87"
         transform="rotate(-42,351,220)"
         style="opacity:0.67;fill:#d8fbff;filter:url(#reflectionSoft)"
         d="M 509,220 A 158,83 0 0 1 351,303 158,83 0 0 1 193,220 158,83 0 0 1 351,137 158,83 0 0 1 509,220 Z" />
      <path
         id="ellipse89"
         transform="rotate(-18,1012,313)"
         style="opacity:0.31;fill:#42d9ff;filter:url(#reflectionSoft)"
         d="M 1187,313 A 175,150 0 0 1 1012,463 175,150 0 0 1 837,313 175,150 0 0 1 1012,163 175,150 0 0 1 1187,313 Z" />
      <path
         id="ellipse91"
         transform="rotate(-42,947,814)"
         style="opacity:0.54;fill:#c4ffff;filter:url(#reflectionSoft)"
         d="M 1127,814 A 180,116 0 0 1 947,930 180,116 0 0 1 767,814 180,116 0 0 1 947,698 180,116 0 0 1 1127,814 Z" />
      <path
         d="m 258,478 c 19,106 72,155 161,220 58,43 95,94 119,164 H 258 Z"
         fill="#67e4ff"
         opacity="0.17"
         filter="url(#reflectionSoft)"
         id="path93" />
      <path
         id="rect95"
         style="fill:url(#glassLight)"
         d="m 441,129 h 374 c 101.936,0 184,82.064 184,184 v 365 c 0,101.936 -82.064,184 -184,184 H 441 C 339.064,862 257,779.936 257,678 V 313 c 0,-101.936 82.064,-184 184,-184 z" />
    </g>
    <path
       id="rect99"
       style="fill:none;stroke:url(#rim);stroke-width:9"
       d="m 441,134 h 374 c 99.166,0 179,79.834 179,179 v 365 c 0,99.166 -79.834,179 -179,179 H 441 C 341.834,857 262,777.166 262,678 V 313 c 0,-99.166 79.834,-179 179,-179 z" />
    <path
       id="rect101"
       style="fill:none;stroke:#ffffff;stroke-width:3;stroke-opacity:0.45"
       d="m 440,146 h 376 c 91.964,0 166,74.036 166,166 v 367 c 0,91.964 -74.036,166 -166,166 H 440 C 348.036,845 274,770.964 274,679 V 312 c 0,-91.964 74.036,-166 166,-166 z" />
  </g>
  <g
     id="snowflake"
     fill="none"
     stroke="url(#ice)"
     stroke-width="47"
     stroke-linecap="round"
     stroke-linejoin="round"
     filter="url(#iceShadow)">
    <path
       id="arm-top"
       d="M 626,389 V 230 m 0,103 -73,-47 m 73,47 73,-47" />
    <path
       id="arm-upper-left"
       d="M 507,451 398,386 m 68,40 -66,35 m 66,-35 -1,-73" />
    <path
       id="arm-lower-left"
       d="m 507,576 -109,65 m 68,-40 -66,-35 m 66,35 -1,73" />
    <path
       id="arm-bottom"
       d="m 626,638 v 148 m 0,-95 -73,48 m 73,-48 73,48" />
    <path
       id="arm-lower-right"
       d="m 745,576 109,65 m -68,-40 66,-35 m -66,35 1,73" />
    <path
       id="arm-upper-right"
       d="m 745,451 109,-65 m -68,40 66,35 m -66,-35 1,-73" />
  </g>
  <g
     id="cpu-pins"
     fill="url(#ice)"
     filter="url(#iceShadow)">
    <path
       id="rect111"
       d="m 582.5,374 c 5.263,0 9.5,4.237 9.5,9.5 v 20 c 0,5.263 -4.237,9.5 -9.5,9.5 -5.263,0 -9.5,-4.237 -9.5,-9.5 v -20 c 0,-5.263 4.237,-9.5 9.5,-9.5 z" />
    <path
       id="rect113"
       d="m 670.5,374 c 5.263,0 9.5,4.237 9.5,9.5 v 20 c 0,5.263 -4.237,9.5 -9.5,9.5 -5.263,0 -9.5,-4.237 -9.5,-9.5 v -20 c 0,-5.263 4.237,-9.5 9.5,-9.5 z" />
    <path
       id="rect115"
       d="m 582.5,610 c 5.263,0 9.5,4.237 9.5,9.5 v 20 c 0,5.263 -4.237,9.5 -9.5,9.5 -5.263,0 -9.5,-4.237 -9.5,-9.5 v -20 c 0,-5.263 4.237,-9.5 9.5,-9.5 z" />
    <path
       id="rect117"
       d="m 670.5,610 c 5.263,0 9.5,4.237 9.5,9.5 v 20 c 0,5.263 -4.237,9.5 -9.5,9.5 -5.263,0 -9.5,-4.237 -9.5,-9.5 v -20 c 0,-5.263 4.237,-9.5 9.5,-9.5 z" />
    <path
       id="rect119"
       d="m 496.5,484 h 20 c 5.263,0 9.5,4.237 9.5,9.5 0,5.263 -4.237,9.5 -9.5,9.5 h -20 c -5.263,0 -9.5,-4.237 -9.5,-9.5 0,-5.263 4.237,-9.5 9.5,-9.5 z" />
    <path
       id="rect121"
       d="m 496.5,523 h 20 c 5.263,0 9.5,4.237 9.5,9.5 0,5.263 -4.237,9.5 -9.5,9.5 h -20 c -5.263,0 -9.5,-4.237 -9.5,-9.5 0,-5.263 4.237,-9.5 9.5,-9.5 z" />
    <path
       id="rect123"
       d="m 736.5,484 h 20 c 5.263,0 9.5,4.237 9.5,9.5 0,5.263 -4.237,9.5 -9.5,9.5 h -20 c -5.263,0 -9.5,-4.237 -9.5,-9.5 0,-5.263 4.237,-9.5 9.5,-9.5 z" />
    <path
       id="rect125"
       d="m 736.5,523 h 20 c 5.263,0 9.5,4.237 9.5,9.5 0,5.263 -4.237,9.5 -9.5,9.5 h -20 c -5.263,0 -9.5,-4.237 -9.5,-9.5 0,-5.263 4.237,-9.5 9.5,-9.5 z" />
  </g>
  <g
     id="cpu-body"
     filter="url(#iceShadow)">
    <path
       id="rect128"
       style="fill:url(#ice)"
       d="m 575,424 h 103 c 21.052,0 38,16.948 38,38 v 103 c 0,21.052 -16.948,38 -38,38 H 575 c -21.052,0 -38,-16.948 -38,-38 V 462 c 0,-21.052 16.948,-38 38,-38 z" />
    <path
       id="rect130"
       style="fill:#0784c9"
       d="m 591,452 h 71 c 14.404,0 26,11.596 26,26 v 71 c 0,14.404 -11.596,26 -26,26 h -71 c -14.404,0 -26,-11.596 -26,-26 v -71 c 0,-14.404 11.596,-26 26,-26 z" />
    <path
       id="rect132"
       style="fill:url(#cpu)"
       d="m 598,468 h 57 c 9.418,0 17,7.582 17,17 v 57 c 0,9.418 -7.582,17 -17,17 h -57 c -9.418,0 -17,-7.582 -17,-17 v -57 c 0,-9.418 7.582,-17 17,-17 z" />
  </g>
  <g
     id="wordmark"
     font-family="'DejaVu Sans'"
     font-weight="700"
     font-size="202px"
     stroke-linejoin="round"
     paint-order="stroke fill">
    <g
       aria-label="Frost"
       transform="matrix(0.86,0,0,1,188,0)"
       id="frost"
       style="fill:#062b62;stroke:#062b62;stroke-width:3">
      <path
         d="M 18.542969,944.74121 H 121.02246 v 28.70215 H 56.516602 v 27.41994 h 60.659178 v 28.7021 H 56.516602 V 1092 H 18.542969 Z"
         id="path161" />
      <path
         d="m 224.09375,1011.6143 q -4.63574,-2.17 -9.27148,-3.1563 -4.53711,-1.085 -9.17286,-1.085 -13.61132,0 -21.00879,8.7784 -7.29882,8.6797 -7.29882,24.9541 V 1092 H 142.03125 V 981.53125 h 35.31055 v 18.14844 q 6.80566,-10.84961 15.58398,-15.78125 8.87695,-5.03028 21.20606,-5.03028 1.77539,0 3.84668,0.19727 2.07128,0.0986 6.0166,0.5918 z"
         id="path163" />
      <path
         d="m 294.22168,1004.1182 q -11.73731,0 -17.95117,8.4824 -6.11524,8.3838 -6.11524,24.2637 0,15.8798 6.11524,24.3623 6.21386,8.3838 17.95117,8.3838 11.54004,0 17.65527,-8.3838 6.11524,-8.4825 6.11524,-24.3623 0,-15.8799 -6.11524,-24.2637 -6.11523,-8.4824 -17.65527,-8.4824 z m 0,-25.25004 q 28.50488,0 44.4834,15.38672 16.07715,15.38672 16.07715,42.60942 0,27.2226 -16.07715,42.6093 -15.97852,15.3868 -44.4834,15.3868 -28.60352,0 -44.7793,-15.3868 -16.07715,-15.3867 -16.07715,-42.6093 0,-27.2227 16.07715,-42.60942 16.17578,-15.38672 44.7793,-15.38672 z"
         id="path165" />
      <path
         d="m 466.73047,984.9834 v 26.8281 q -11.34277,-4.7344 -21.89649,-7.1015 -10.55371,-2.3672 -19.92382,-2.3672 -10.06055,0 -14.99219,2.5644 -4.83301,2.4658 -4.83301,7.6934 0,4.2412 3.64941,6.5098 3.74805,2.2685 13.31543,3.3535 l 6.21387,0.8877 q 27.12403,3.4521 36.49414,11.3427 9.37012,7.8907 9.37012,24.7569 0,17.6552 -13.01953,26.5322 -13.01953,8.877 -38.86133,8.877 -10.94824,0 -22.68555,-1.7754 -11.63867,-1.6768 -23.96777,-5.1289 v -26.8282 q 10.55371,5.1289 21.60059,7.6934 11.1455,2.5644 22.58691,2.5644 10.35645,0 15.58398,-2.8603 5.22754,-2.8604 5.22754,-8.4824 0,-4.7344 -3.64941,-7.003 -3.55078,-2.3671 -14.30176,-3.6494 l -6.21387,-0.789 q -23.57324,-2.959 -33.04199,-10.9483 -9.46875,-7.9892 -9.46875,-24.2637 0,-17.55659 12.03321,-26.03901 12.0332,-8.48243 36.88867,-8.48243 9.76465,0 20.51562,1.4795 10.75098,1.47949 23.37598,4.63574 z"
         id="path167" />
      <path
         d="m 539.22559,950.16602 v 31.36523 h 36.3955 v 25.24995 h -36.3955 v 46.8506 q 0,7.6934 3.05761,10.4551 3.05762,2.6631 12.13184,2.6631 h 18.14844 V 1092 H 542.2832 q -20.91015,0 -29.68847,-8.6797 -8.67969,-8.7783 -8.67969,-29.6885 v -46.8506 H 486.3584 v -25.24995 h 17.55664 v -31.36523 z"
         id="path169" />
    </g>
    <g
       aria-label="Byte"
       transform="matrix(0.8,0,0,1,674,0)"
       id="byte-text"
       style="fill:url(#byte);stroke:#12a9ec;stroke-width:2">
      <path
         d="m 77.525391,1001.751 q 8.975586,0 13.611328,-3.94534 4.635742,-3.94531 4.635742,-11.63867 0,-7.59472 -4.635742,-11.54004 -4.635742,-4.04394 -13.611328,-4.04394 H 56.516602 v 31.16799 z m 1.282226,64.4072 q 11.441406,0 17.16211,-4.833 5.819333,-4.833 5.819333,-14.5977 0,-9.5673 -5.720701,-14.3017 -5.720703,-4.833 -17.260742,-4.833 H 56.516602 v 38.5654 z m 35.310543,-52.9658 q 12.23047,3.5508 18.9375,13.1181 6.70704,9.5674 6.70704,23.4747 0,21.3046 -14.4004,31.7597 Q 110.96191,1092 81.569336,1092 H 18.542969 V 944.74121 h 57.009765 q 30.674806,0 44.384766,9.27149 13.80859,9.27148 13.80859,29.68847 0,10.75098 -5.03027,18.34573 -5.03027,7.4961 -14.59766,11.1455 z"
         id="path172" />
      <path
         d="m 156.43164,981.53125 h 35.31055 l 29.68847,74.96095 25.25,-74.96095 h 35.31055 l -46.45605,120.92385 q -7.00293,18.4443 -16.37305,25.7431 -9.27149,7.3975 -24.55957,7.3975 h -20.41699 v -23.1787 h 11.04687 q 8.97559,0 13.01953,-2.8604 4.14258,-2.8603 6.41114,-10.2578 l 0.98632,-3.0576 z"
         id="path174" />
      <path
         d="m 341.1709,950.16602 v 31.36523 h 36.39551 v 25.24995 H 341.1709 v 46.8506 q 0,7.6934 3.05762,10.4551 3.05761,2.6631 12.13183,2.6631 h 18.14844 V 1092 h -30.28027 q -20.91016,0 -29.68848,-8.6797 -8.67969,-8.7783 -8.67969,-29.6885 v -46.8506 h -17.55664 v -25.24995 h 17.55664 v -31.36523 z"
         id="path176" />
      <path
         d="m 509.43848,1036.4697 v 10.0606 h -82.55567 q 1.28223,12.4277 8.97559,18.6416 7.69336,6.2138 21.50195,6.2138 11.14551,0 22.78418,-3.2548 11.73731,-3.3536 24.06641,-10.0606 v 27.2227 q -12.52637,4.7343 -25.05274,7.1015 -12.52636,2.4659 -25.05273,2.4659 -29.98438,0 -46.65332,-15.1895 -16.57031,-15.2881 -16.57031,-42.8066 0,-27.0254 16.27441,-42.51078 16.37305,-15.48536 44.97656,-15.48536 26.03906,0 41.62305,15.68262 15.68262,15.68262 15.68262,41.91892 z m -36.29688,-11.7373 q 0,-10.0605 -5.91797,-16.1758 -5.81933,-6.2138 -15.28808,-6.2138 -10.25782,0 -16.66895,5.8193 -6.41113,5.7207 -7.98926,16.5703 z"
         id="path178" />
    </g>
  </g>
</svg>
